# xmcd
#
# Track frame offsets: 
#        150
#        19622
#        34626
#        53515
#        68192
#        83127
#        108669
#        125953
#
# Disc length: 1848 seconds
#
# Revision: 2
# Processed by: cddbd v1.5.2PL0 Copyright (c) Steve Scherf et al.
# Submitted via: ExactAudioCopy v0.99pb5
#
DISCID=65073608
DTITLE=Sarah Levecque - Crooked with Me
DYEAR=2008
DGENRE=Folk-Rock
TTITLE0=Crooked with Me
TTITLE1=Drifter's Daydream
TTITLE2=Restless, Restless Blues
TTITLE3=Wayside Heart
TTITLE4=Don't It Figure
TTITLE5=Last Call Blonde
TTITLE6=Crosswinds
TTITLE7=See Me Come Around
EXTD=
EXTT0=
EXTT1=
EXTT2=
EXTT3=
EXTT4=
EXTT5=
EXTT6=
EXTT7=
PLAYORDER=
